<svg xmlns="http://www.w3.org/2000/svg" width="446.03" height="163.86" viewBox="0 0 446.03 163.86"><defs><style>.cls-1,.cls-4{fill:#1064af;}.cls-2{fill:none;stroke:#1064af;stroke-width:2.69px;}.cls-3{fill:#fff;}.cls-4{font-size:23.02px;font-family:GothamPro-Bold, Gotham Pro;font-weight:700;}.cls-5{letter-spacing:-0.01em;}.cls-6{letter-spacing:-0.02em;}.cls-7{letter-spacing:0em;}</style></defs><title>Asset 1</title><g id="Layer_2" data-name="Layer 2"><g id="Layer_1-2" data-name="Layer 1"><path class="cls-1" d="M251.63,68.47V8.5H239.21L221.3,42.62,203.57,8.5h-12.5v60h11.66V28.77l15.46,29.56h6.33L240,28.77v39.7Zm14.54,0h12l5.49-15H304.6l5.58,15h12l-22.81-60h-10.3ZM285.6,45.33l8.62-23.57,8.28,23.57Zm63.24,22.93a11.71,11.71,0,0,0,4.1-2.62A24,24,0,0,0,356.6,61a60.77,60.77,0,0,0,3.63-6.89L381.35,8.5H369.11L355.42,40.85,340.73,8.5H328.14l22,44.09a11.12,11.12,0,0,1-3.17,5A6.81,6.81,0,0,1,342.75,59a9.46,9.46,0,0,1-3.42-.63,22.42,22.42,0,0,1-2.58-1.14l-1.52,9.63a8.72,8.72,0,0,0,2,1,16.46,16.46,0,0,0,2.32.67c.79.17,1.55.3,2.28.38a18,18,0,0,0,2,.13,14.47,14.47,0,0,0,5-.8m44.88.21h11.57V18.72h26.27V68.47h11.57V8.5H393.72Z"/><rect class="cls-2" x="1.34" y="1.34" width="158.45" height="158.45"/><path class="cls-1" d="M64.86,54.08a32.94,32.94,0,0,1,2.85-1.69c0,8.31.17,17.72,0,25.91a14,14,0,0,0-5.5-5.95,11.52,11.52,0,0,1-5.59-6c-4.1-8.85-2.12-22-8.13-29.72L48.07,36a29.32,29.32,0,0,1,3.79-2.49l-.15-1.42c-1.06.12-3.72,2.44-5,2.74-.54-1-1.84-1.55-2.57-2.4,1.16-1.06,6.9-4.09,8.07-5.09l.07-.06.21-.22c-2.64.22-6.72,1-9.51,1.48L19.47,32.25c-.59.09-4.23.51-4.75.86a28.66,28.66,0,0,0,1.91,3l4,6c.65,1,1.33,2,1.93,3,1.16-.39,5-2.77,6.37-3.52s1.21-1.21,3.84,1.29A23.15,23.15,0,0,1,36,46.27c6.47,9.25,4,18.51,8.34,28.2,1.39,3.09,5.07,6.78,7.8,8.81.63.47,1.42.89,2,1.35s1.23,1,1.83,1.5a23.58,23.58,0,0,1,7,9.6c1.88,4.77,1.47,5.79,1.47,10.47v34.27c1.07-.53,2-1.9,3.1-2.44l0,2.44h1.78l.13-89.09a33.29,33.29,0,0,1,4-2.14v91.2a14.34,14.34,0,0,0,1.81-2.06c3.45-4.18,6.85-8.54,10.36-12.66a10.46,10.46,0,0,1,1.85-2.12,27.39,27.39,0,0,1,3.1,3.38l3.12,3.52c.74.82,1.35,1.56,2.07,2.33s1.36,1.49,2.11,2.28a56.42,56.42,0,0,0,4.54,4.24c.57.49,2.14,2.08,2.65.5-1.93-1-4.4-3.59-6-5.23-.89-.93-1.94-1.93-2.78-2.91-1.05-1.22-3-3.34-3.91-4.52-.42-.55-.89-1-1.3-1.55s-.85-1-1.31-1.54a63.81,63.81,0,0,1-4.92-6.47l-1.1-1.75c-3.25-5.18-8.43-13.92-5.8-21.07,1.49-4,5.79-5.75,9.11-8a60.47,60.47,0,0,0,5-3.38,18.74,18.74,0,0,0,6.19-8c3.84-9.24,5.16-25.44,12.87-32.46,3.06-2.79,8.57-4.4,12.82-2.23a6.27,6.27,0,0,1,3,2.74c-.81.41-2.53,1.92-3.22,2-1.65.17-4.19-3.1-8.24-.53-5.22,3.31-7.05,11.24-9.23,17.35-.44,1.24-.75,2.76-1.11,4.11A58.84,58.84,0,0,1,100.9,78a50.78,50.78,0,0,1-4.08,6.48c-2.29,3.2-9,6.23-12.5,8.74A14,14,0,0,0,81.93,96a8.48,8.48,0,0,0-.93,4.33c.26,2.07,2,5.94,2.88,7.67a67.36,67.36,0,0,0,3.95,6.73A58.92,58.92,0,0,0,92.19,121c.78.87,1.55,2.16,2.31,3,.89,1,1.47,2,2.38,3,1.69,1.89,3.23,3.74,5.09,5.47l4.21,3.73a12.16,12.16,0,0,0,1.58,1.22,24.5,24.5,0,0,0,2.73-3l5.35-6c.55-.6.84-1,1.32-1.54a13.5,13.5,0,0,0,1.36-1.54L114.66,122a57.82,57.82,0,0,1-5.38-5.42c-.48-.55-1-1.43-1.54-2a41.55,41.55,0,0,1-3.33-3.9c-3.48-4.66-8.4-11.7-10-18.8-.19-.85-.64-2.49-.15-3.18l9-9.06c2.46-2.44,6.3-7,7.57-10.36,1-2.56,4.21-11.38,4.76-13.38l26.19,1.34.28-1-26-1.37c.06-1.41,1-2.51,1.29-3.63L143,52.52l.31-.71c1.1-3.81,6.68-21.83,7-23.36-1,.22-5.64,3.62-7,4.44s-1.47.17-2.56-.43c-5.91-3.23-12.32-1.88-18.09,1.36C116.16,37.44,109.1,41.21,106,48A90.15,90.15,0,0,0,100.2,65.3C98.82,70.85,97,77.41,93,81.29a18.8,18.8,0,0,1-4.51,3.21c-.14-6.41,0-14.6,0-21.25,0-2.55-.11-22.8,0-23.5.06-.32,5.24-3.29,5.91-3.68L96,35.23c.35-.22.28-.12.42-.45-.33-.61-11.31-8.38-12.82-9.65a10.72,10.72,0,0,0-1.92-1.37,36.46,36.46,0,0,1-2.06,3.74c-.75,1.31-1.39,2.49-2.13,3.81L71.17,42.67c-.7,1.28-1.43,2.54-2.11,3.83-1.31,2.51-3,5-4.2,7.58"/><path class="cls-3" d="M13.09,39.09c.67.61,3.52,4.74,4.24,5.8l4.18,5.9c.62-.19,7.58-4.11,8.47-4.57a9.29,9.29,0,0,1,2.52,2.72c5.77,9.32,3.68,23.44,11.1,32.33A11.74,11.74,0,0,0,46.28,84c4.35,3.66,7.87,5.89,11.2,10.63,1.09,1.54,2.9,5.49,2.9,8v34.41a31.34,31.34,0,0,1-.1,3.93h1.22c-.31-2.25-.11-19-.11-22.91V102.53c0-3.11-2.28-7.55-4-9.75a38.25,38.25,0,0,0-5.59-5.56l-6.07-5a29,29,0,0,1-3.51-4.92C37.42,68.75,38.77,56.72,33,47.77a31.14,31.14,0,0,0-2.74-2.83c-.19.17-8,4.42-8.35,4.51-.67-.84-1.35-1.82-2-2.72l-3-4.22c-.6-.88-2.64-3.62-2.91-4.31a1.44,1.44,0,0,0-.86.88"/><path class="cls-3" d="M58.76,54,60,54l16.9-29.36c.24-.43.43-.6.61-.9H76.23c-1.2,2.36-3,5.11-4.32,7.55L63.17,46.42c-.71,1.28-1.48,2.52-2.17,3.76Z"/><text class="cls-4" transform="translate(191.06 105.24)">Міжрегіональна</text><text class="cls-4" transform="translate(191.06 132.56)">А<tspan class="cls-5" x="18.18" y="0">к</tspan><tspan x="32.01" y="0">адемія управління</tspan></text><text class="cls-4" transform="translate(191.06 159.88)">пер<tspan class="cls-6" x="43.98" y="0">с</tspan><tspan class="cls-7" x="56.66" y="0">оналом</tspan></text></g></g></svg>